<svg width="19" height="18" viewBox="0 0 19 18" fill="none" xmlns="http://www.w3.org/2000/svg">
<path fill-rule="evenodd" clip-rule="evenodd" d="M9.17242 0.21582C4.21829 0.21582 0.199951 4.23417 0.199951 9.18829C0.199951 13.1516 2.7871 16.5094 6.31004 17.7204C6.75041 17.7755 6.91555 17.5002 6.91555 17.28C6.91555 17.0599 6.91555 16.5094 6.91555 15.7388C4.43848 16.2892 3.88803 14.5277 3.88803 14.5277C3.5027 13.4819 2.8972 13.2066 2.8972 13.2066C2.07151 12.6562 2.95224 12.6562 2.95224 12.6562C3.83298 12.7113 4.32839 13.5919 4.32839 13.5919C5.15408 14.9682 6.42013 14.5828 6.91555 14.3626C6.97059 13.7571 7.24583 13.3718 7.46601 13.1516C5.48436 12.9315 3.39261 12.1608 3.39261 8.69288C3.39261 7.70206 3.72289 6.93142 4.32839 6.27087C4.27335 6.10573 3.94307 5.16995 4.43848 3.95893C4.43848 3.95893 5.20913 3.73876 6.91555 4.89472C7.63114 4.67454 8.40179 4.61949 9.17242 4.61949C9.94307 4.61949 10.7137 4.72958 11.4293 4.89472C13.1358 3.73876 13.9064 3.95893 13.9064 3.95893C14.4018 5.16995 14.0715 6.10573 14.0164 6.32591C14.5669 6.93142 14.9522 7.7571 14.9522 8.74793C14.9522 12.2158 12.8605 12.9315 10.8788 13.1516C11.2091 13.4268 11.4844 13.9773 11.4844 14.803C11.4844 16.014 11.4844 16.9497 11.4844 17.28C11.4844 17.5002 11.6495 17.7755 12.0899 17.7204C15.6678 16.5094 18.2 13.1516 18.2 9.18829C18.1449 4.23417 14.1266 0.21582 9.17242 0.21582Z" fill="white"/>
</svg>
