<svg width="19" height="15" viewBox="0 0 19 15" fill="none" xmlns="http://www.w3.org/2000/svg">
<path d="M15.4377 1.82941C14.2905 1.30087 13.0602 0.911463 11.7738 0.688436C11.7504 0.684131 11.727 0.694888 11.715 0.716402C11.5567 0.998951 11.3815 1.36756 11.2588 1.65728C9.87525 1.44932 8.49884 1.44932 7.14369 1.65728C7.02094 1.36112 6.83932 0.998951 6.68038 0.716402C6.66832 0.695606 6.64492 0.684849 6.62149 0.688436C5.33588 0.910751 4.10562 1.30015 2.95765 1.82941C2.94772 1.83371 2.93919 1.84088 2.93354 1.8502C0.599994 5.35056 -0.0392611 8.76488 0.274336 12.1369C0.275755 12.1534 0.284978 12.1691 0.297749 12.1791C1.83735 13.3144 3.32873 14.0036 4.79241 14.4604C4.81584 14.4675 4.84065 14.459 4.85556 14.4396C5.20179 13.9649 5.51043 13.4644 5.77506 12.9379C5.79067 12.907 5.77577 12.8705 5.74385 12.8583C5.25429 12.6719 4.78815 12.4445 4.33975 12.1863C4.30428 12.1655 4.30144 12.1146 4.33407 12.0903C4.42843 12.0193 4.52282 11.9454 4.61292 11.8708C4.62922 11.8572 4.65194 11.8543 4.67109 11.8629C7.61692 13.2133 10.8061 13.2133 13.7172 11.8629C13.7363 11.8536 13.759 11.8565 13.7761 11.8701C13.8662 11.9447 13.9605 12.0193 14.0556 12.0903C14.0882 12.1146 14.0862 12.1655 14.0506 12.1863C13.6022 12.4495 13.1361 12.6719 12.6458 12.8576C12.6139 12.8698 12.5997 12.907 12.6153 12.9379C12.8857 13.4636 13.1943 13.9641 13.5341 14.4388C13.5483 14.459 13.5738 14.4675 13.5972 14.4604C15.0681 14.0036 16.5594 13.3144 18.099 12.1791C18.1125 12.1691 18.121 12.1541 18.1224 12.1375C18.4977 8.23919 17.4938 4.85287 15.4611 1.85092C15.4562 1.84088 15.4476 1.83371 15.4377 1.82941ZM6.21497 10.0837C5.32807 10.0837 4.59731 9.26615 4.59731 8.26215C4.59731 7.25814 5.31391 6.44063 6.21497 6.44063C7.12311 6.44063 7.84681 7.26533 7.83261 8.26215C7.83261 9.26615 7.11601 10.0837 6.21497 10.0837ZM12.1961 10.0837C11.3091 10.0837 10.5784 9.26615 10.5784 8.26215C10.5784 7.25814 11.2949 6.44063 12.1961 6.44063C13.1042 6.44063 13.8279 7.26533 13.8137 8.26215C13.8137 9.26615 13.1042 10.0837 12.1961 10.0837Z" fill="white"/>
</svg>
