<svg width="19" height="16" viewBox="0 0 19 16" fill="none" xmlns="http://www.w3.org/2000/svg">
<path d="M18.2 2.375C17.525 2.7125 16.85 2.825 16.0625 2.9375C16.85 2.4875 17.4125 1.8125 17.6375 0.9125C16.9625 1.3625 16.175 1.5875 15.275 1.8125C14.6 1.1375 13.5875 0.6875 12.575 0.6875C10.2125 0.6875 8.41245 2.9375 8.97495 5.1875C5.93745 5.075 3.23745 3.6125 1.32495 1.3625C0.312451 3.05 0.874951 5.1875 2.44995 6.3125C1.88745 6.3125 1.32495 6.0875 0.762451 5.8625C0.762451 7.55 1.99995 9.125 3.68745 9.575C3.12495 9.6875 2.56245 9.8 1.99995 9.6875C2.44995 11.15 3.79995 12.275 5.48745 12.275C4.13745 13.2875 2.11245 13.85 0.199951 13.625C1.88745 14.6375 3.79995 15.3125 5.82495 15.3125C12.6875 15.3125 16.5125 9.575 16.2875 4.2875C17.075 3.8375 17.75 3.1625 18.2 2.375Z" fill="white"/>
</svg>
