<svg width="28" height="24" viewBox="0 0 28 24" fill="none" xmlns="http://www.w3.org/2000/svg">
<path d="M27.7143 3.40932C26.6858 3.9236 25.6572 4.09503 24.4572 4.26646C25.6572 3.58075 26.5143 2.55218 26.8572 1.18075C25.8286 1.86646 24.6286 2.20932 23.2572 2.55218C22.2286 1.5236 20.6858 0.837891 19.1429 0.837891C15.5429 0.837891 12.8001 4.26646 13.6572 7.69503C9.02862 7.5236 4.91434 5.29503 2.00005 1.86646C0.457195 4.43789 1.31434 7.69503 3.71434 9.40932C2.8572 9.40932 2.00005 9.06646 1.14291 8.7236C1.14291 11.295 3.02862 13.695 5.60005 14.3807C4.74291 14.5522 3.88577 14.7236 3.02862 14.5522C3.71434 16.7807 5.77148 18.495 8.34291 18.495C6.28577 20.0379 3.20005 20.895 0.285767 20.5522C2.8572 22.095 5.77148 23.1236 8.8572 23.1236C19.3143 23.1236 25.1429 14.3807 24.8001 6.32361C26.0001 5.63789 27.0286 4.60932 27.7143 3.40932Z" fill="white"/>
</svg>
