<svg width="30" height="24" viewBox="0 0 30 24" fill="none" xmlns="http://www.w3.org/2000/svg">
<path d="M25.2363 2.85437C23.3536 1.98702 21.3347 1.348 19.2238 0.982004C19.1854 0.97494 19.147 0.992593 19.1272 1.0279C18.8675 1.49157 18.5799 2.09646 18.3785 2.57191C16.1081 2.23063 13.8494 2.23063 11.6256 2.57191C11.4241 2.08589 11.1261 1.49157 10.8653 1.0279C10.8455 0.993771 10.8071 0.976118 10.7686 0.982004C8.6589 1.34683 6.64002 1.98585 4.75617 2.85437C4.73987 2.86142 4.72588 2.8732 4.71661 2.88849C0.887194 8.63267 -0.161841 14.2357 0.35278 19.7691C0.355109 19.7963 0.370245 19.8221 0.391202 19.8386C2.91773 21.7015 5.36513 22.8325 7.76706 23.5822C7.8055 23.5938 7.84623 23.5798 7.87069 23.548C8.43886 22.769 8.94535 21.9476 9.3796 21.0836C9.40523 21.033 9.38077 20.973 9.32839 20.9531C8.52502 20.6472 7.76007 20.2741 7.02423 19.8504C6.96602 19.8162 6.96137 19.7326 7.0149 19.6927C7.16976 19.5762 7.32465 19.4549 7.47251 19.3325C7.49926 19.3102 7.53653 19.3055 7.56797 19.3196C12.4021 21.5355 17.6357 21.5355 22.4128 19.3196C22.4442 19.3043 22.4815 19.309 22.5095 19.3314C22.6574 19.4538 22.8121 19.5762 22.9681 19.6927C23.0217 19.7326 23.0183 19.8162 22.96 19.8504C22.2241 20.2822 21.4593 20.6472 20.6547 20.952C20.6023 20.9719 20.579 21.033 20.6047 21.0836C21.0483 21.9463 21.5547 22.7677 22.1124 23.5467C22.1357 23.5798 22.1776 23.5938 22.216 23.5822C24.6297 22.8325 27.0769 21.7015 29.6036 19.8386C29.6257 19.8221 29.6396 19.7974 29.642 19.7703C30.2579 13.373 28.6103 7.81595 25.2747 2.88967C25.2666 2.8732 25.2526 2.86142 25.2363 2.85437ZM10.1015 16.3998C8.64609 16.3998 7.44688 15.0583 7.44688 13.4107C7.44688 11.7631 8.62285 10.4215 10.1015 10.4215C11.5918 10.4215 12.7794 11.7749 12.7561 13.4107C12.7561 15.0583 11.5801 16.3998 10.1015 16.3998ZM19.9166 16.3998C18.4612 16.3998 17.262 15.0583 17.262 13.4107C17.262 11.7631 18.4379 10.4215 19.9166 10.4215C21.4068 10.4215 22.5945 11.7749 22.5712 13.4107C22.5712 15.0583 21.4068 16.3998 19.9166 16.3998Z" fill="white"/>
</svg>
